#Comment line ignore any data following # character 
#Hierarchical Translation and Rotation (.htr) file 
[Header]	
#Header keywords are followed by a single value 
FileType HTR		#Single word string
DataType HTRS		#Translation followed by rotation and scale data
FileVersion 1		#integer
NumSegments 84		#integer
NumFrames 2		#integer
DataFrameRate 30		#integer, data frame rate in this file
EulerRotationOrder ZYX
CalibrationUnits mm
RotationUnits Degrees
GlobalAxisofGravity Y
BoneLengthAxis Y
ScaleFactor 1.00
[SegmentNames&Hierarchy]
#CHILD	PARENT
MASTER GLOBAL
root MASTER
chest root
L_mid_tent01 root
R_mid_tent01 root
spine01 root
Bip01_Neck chest
L_humerus chest
R_humerus chest
weapon_bone chest
Bip01_Head Bip01_Neck
eye_left_bone Bip01_Head
eye_right_bone Bip01_Head
L_forearm L_humerus
L_front_hand L_forearm
L_weapon_bone L_forearm
L_front_hand01_01 L_front_hand
L_front_hand02_01 L_front_hand
L_front_hand03_01 L_front_hand
L_front_hand01_02 L_front_hand01_01
L_front_hand02_02 L_front_hand02_01
L_front_hand03_02 L_front_hand03_01
R_forearm R_humerus
R_front_hand R_forearm
R_weapon_bone R_forearm
R_front_hand01_01 R_front_hand
R_front_hand02_01 R_front_hand
R_front_hand03_01 R_front_hand
R_front_hand01_02 R_front_hand01_01
R_front_hand02_02 R_front_hand02_01
R_front_hand03_02 R_front_hand03_01
null_rope01_connect L_mid_tent01
Rope1_Seg01 null_rope01_connect
Rope1_Seg02 Rope1_Seg01
Rope1_Seg03 Rope1_Seg02
Rope1_Seg04 Rope1_Seg03
Rope1_Seg05 Rope1_Seg04
Rope1_Seg06 Rope1_Seg05
Rope1_Seg07 Rope1_Seg06
Rope1_Seg09 Rope1_Seg07
L_mid_hand01 Rope1_Seg09
L_mid_hand02 Rope1_Seg09
L_mid_hand03 Rope1_Seg09
null_rope02_connect R_mid_tent01
Rope2_Seg01 null_rope02_connect
Rope2_Seg02 Rope2_Seg01
Rope2_Seg03 Rope2_Seg02
Rope2_Seg04 Rope2_Seg03
Rope2_Seg05 Rope2_Seg04
Rope2_Seg06 Rope2_Seg05
Rope2_Seg07 Rope2_Seg06
Rope2_Seg09 Rope2_Seg07
R_mid_hand01 Rope2_Seg09
R_mid_hand02 Rope2_Seg09
R_mid_hand03 Rope2_Seg09
spine02 spine01
spine03 spine02
pelvis spine03
null_rope03_connect pelvis
null_rope04_connect pelvis
Rope3_Seg01 null_rope03_connect
Rope3_Seg02 Rope3_Seg01
Rope3_Seg03 Rope3_Seg02
Rope3_Seg04 Rope3_Seg03
Rope3_Seg05 Rope3_Seg04
Rope3_Seg06 Rope3_Seg05
Rope3_Seg07 Rope3_Seg06
Rope3_Seg08 Rope3_Seg07
Rope3_Seg09 Rope3_Seg08
R_rear_hand01 Rope3_Seg09
R_rear_hand02 Rope3_Seg09
R_rear_hand03 Rope3_Seg09
Rope4_Seg01 null_rope04_connect
Rope4_Seg02 Rope4_Seg01
Rope4_Seg03 Rope4_Seg02
Rope4_Seg04 Rope4_Seg03
Rope4_Seg05 Rope4_Seg04
Rope4_Seg06 Rope4_Seg05
Rope4_Seg07 Rope4_Seg06
Rope4_Seg08 Rope4_Seg07
Rope4_Seg09 Rope4_Seg08
L_rear_hand01 Rope4_Seg09
L_rear_hand02 Rope4_Seg09
L_rear_hand03 Rope4_Seg09
[BasePosition]
#SegmentName Tx, Ty, Tz, Rx, Ry, Rz, BoneLength
MASTER 0.000000 0.000000 0.000000 -90.000000 0.000000 0.000000 10.000000 
root 0.000000 0.000000 0.000000 0.000000 0.000000 0.000000 10.000000 
chest 0.000000 0.000000 0.000000 0.000000 0.000000 0.000000 10.000000 
L_mid_tent01 0.000000 0.000000 0.000000 0.000000 0.000000 0.000000 10.000000 
R_mid_tent01 0.000000 0.000000 0.000000 0.000000 0.000000 0.000000 10.000000 
spine01 0.000000 0.000000 0.000000 0.000000 0.000000 0.000000 10.000000 
Bip01_Neck 0.000000 0.000000 0.000000 0.000000 0.000000 0.000000 10.000000 
L_humerus 0.000000 0.000000 0.000000 0.000000 0.000000 0.000000 10.000000 
R_humerus 0.000000 0.000000 0.000000 0.000000 0.000000 0.000000 10.000000 
weapon_bone 0.000000 0.000000 0.000000 0.000000 0.000000 0.000000 10.000000 
Bip01_Head 0.000000 0.000000 0.000000 0.000000 0.000000 0.000000 10.000000 
eye_left_bone 0.000000 0.000000 0.000000 0.000000 0.000000 0.000000 10.000000 
eye_right_bone 0.000000 0.000000 0.000000 0.000000 0.000000 0.000000 10.000000 
L_forearm 0.000000 0.000000 0.000000 0.000000 0.000000 0.000000 10.000000 
L_front_hand 0.000000 0.000000 0.000000 0.000000 0.000000 0.000000 10.000000 
L_weapon_bone 0.000000 0.000000 0.000000 0.000000 0.000000 0.000000 10.000000 
L_front_hand01_01 0.000000 0.000000 0.000000 0.000000 0.000000 0.000000 10.000000 
L_front_hand02_01 0.000000 0.000000 0.000000 0.000000 0.000000 0.000000 10.000000 
L_front_hand03_01 0.000000 0.000000 0.000000 0.000000 0.000000 0.000000 10.000000 
L_front_hand01_02 0.000000 0.000000 0.000000 0.000000 0.000000 0.000000 10.000000 
L_front_hand02_02 0.000000 0.000000 0.000000 0.000000 0.000000 0.000000 10.000000 
L_front_hand03_02 0.000000 0.000000 0.000000 0.000000 0.000000 0.000000 10.000000 
R_forearm 0.000000 0.000000 0.000000 0.000000 0.000000 0.000000 10.000000 
R_front_hand 0.000000 0.000000 0.000000 0.000000 0.000000 0.000000 10.000000 
R_weapon_bone 0.000000 0.000000 0.000000 0.000000 0.000000 0.000000 10.000000 
R_front_hand01_01 0.000000 0.000000 0.000000 0.000000 0.000000 0.000000 10.000000 
R_front_hand02_01 0.000000 0.000000 0.000000 0.000000 0.000000 0.000000 10.000000 
R_front_hand03_01 0.000000 0.000000 0.000000 0.000000 0.000000 0.000000 10.000000 
R_front_hand01_02 0.000000 0.000000 0.000000 0.000000 0.000000 0.000000 10.000000 
R_front_hand02_02 0.000000 0.000000 0.000000 0.000000 0.000000 0.000000 10.000000 
R_front_hand03_02 0.000000 0.000000 0.000000 0.000000 0.000000 0.000000 10.000000 
null_rope01_connect 0.000000 0.000000 0.000000 0.000000 0.000000 0.000000 10.000000 
Rope1_Seg01 0.000000 0.000000 0.000000 0.000000 0.000000 0.000000 10.000000 
Rope1_Seg02 0.000000 0.000000 0.000000 0.000000 0.000000 0.000000 10.000000 
Rope1_Seg03 0.000000 0.000000 0.000000 0.000000 0.000000 0.000000 10.000000 
Rope1_Seg04 0.000000 0.000000 0.000000 0.000000 0.000000 0.000000 10.000000 
Rope1_Seg05 0.000000 0.000000 0.000000 0.000000 0.000000 0.000000 10.000000 
Rope1_Seg06 0.000000 0.000000 0.000000 0.000000 0.000000 0.000000 10.000000 
Rope1_Seg07 0.000000 0.000000 0.000000 0.000000 0.000000 0.000000 10.000000 
Rope1_Seg09 0.000000 0.000000 0.000000 0.000000 0.000000 0.000000 10.000000 
L_mid_hand01 0.000000 0.000000 0.000000 0.000000 0.000000 0.000000 10.000000 
L_mid_hand02 0.000000 0.000000 0.000000 0.000000 0.000000 0.000000 10.000000 
L_mid_hand03 0.000000 0.000000 0.000000 0.000000 0.000000 0.000000 10.000000 
null_rope02_connect 0.000000 0.000000 0.000000 0.000000 0.000000 0.000000 10.000000 
Rope2_Seg01 0.000000 0.000000 0.000000 0.000000 0.000000 0.000000 10.000000 
Rope2_Seg02 0.000000 0.000000 0.000000 0.000000 0.000000 0.000000 10.000000 
Rope2_Seg03 0.000000 0.000000 0.000000 0.000000 0.000000 0.000000 10.000000 
Rope2_Seg04 0.000000 0.000000 0.000000 0.000000 0.000000 0.000000 10.000000 
Rope2_Seg05 0.000000 0.000000 0.000000 0.000000 0.000000 0.000000 10.000000 
Rope2_Seg06 0.000000 0.000000 0.000000 0.000000 0.000000 0.000000 10.000000 
Rope2_Seg07 0.000000 0.000000 0.000000 0.000000 0.000000 0.000000 10.000000 
Rope2_Seg09 0.000000 0.000000 0.000000 0.000000 0.000000 0.000000 10.000000 
R_mid_hand01 0.000000 0.000000 0.000000 0.000000 0.000000 0.000000 10.000000 
R_mid_hand02 0.000000 0.000000 0.000000 0.000000 0.000000 0.000000 10.000000 
R_mid_hand03 0.000000 0.000000 0.000000 0.000000 0.000000 0.000000 10.000000 
spine02 0.000000 0.000000 0.000000 0.000000 0.000000 0.000000 10.000000 
spine03 0.000000 0.000000 0.000000 0.000000 0.000000 0.000000 10.000000 
pelvis 0.000000 0.000000 0.000000 0.000000 0.000000 0.000000 10.000000 
null_rope03_connect 0.000000 0.000000 0.000000 0.000000 0.000000 0.000000 10.000000 
null_rope04_connect 0.000000 0.000000 0.000000 0.000000 0.000000 0.000000 10.000000 
Rope3_Seg01 0.000000 0.000000 0.000000 0.000000 0.000000 0.000000 10.000000 
Rope3_Seg02 0.000000 0.000000 0.000000 0.000000 0.000000 0.000000 10.000000 
Rope3_Seg03 0.000000 0.000000 0.000000 0.000000 0.000000 0.000000 10.000000 
Rope3_Seg04 0.000000 0.000000 0.000000 0.000000 0.000000 0.000000 10.000000 
Rope3_Seg05 0.000000 0.000000 0.000000 0.000000 0.000000 0.000000 10.000000 
Rope3_Seg06 0.000000 0.000000 0.000000 0.000000 0.000000 0.000000 10.000000 
Rope3_Seg07 0.000000 0.000000 0.000000 0.000000 0.000000 0.000000 10.000000 
Rope3_Seg08 0.000000 0.000000 0.000000 0.000000 0.000000 0.000000 10.000000 
Rope3_Seg09 0.000000 0.000000 0.000000 0.000000 0.000000 0.000000 10.000000 
R_rear_hand01 0.000000 0.000000 0.000000 0.000000 0.000000 0.000000 10.000000 
R_rear_hand02 0.000000 0.000000 0.000000 0.000000 0.000000 0.000000 10.000000 
R_rear_hand03 0.000000 0.000000 0.000000 0.000000 0.000000 0.000000 10.000000 
Rope4_Seg01 0.000000 0.000000 0.000000 0.000000 0.000000 0.000000 10.000000 
Rope4_Seg02 0.000000 0.000000 0.000000 0.000000 0.000000 0.000000 10.000000 
Rope4_Seg03 0.000000 0.000000 0.000000 0.000000 0.000000 0.000000 10.000000 
Rope4_Seg04 0.000000 0.000000 0.000000 0.000000 0.000000 0.000000 10.000000 
Rope4_Seg05 0.000000 0.000000 0.000000 0.000000 0.000000 0.000000 10.000000 
Rope4_Seg06 0.000000 0.000000 0.000000 0.000000 0.000000 0.000000 10.000000 
Rope4_Seg07 0.000000 0.000000 0.000000 0.000000 0.000000 0.000000 10.000000 
Rope4_Seg08 0.000000 0.000000 0.000000 0.000000 0.000000 0.000000 10.000000 
Rope4_Seg09 0.000000 0.000000 0.000000 0.000000 0.000000 0.000000 10.000000 
L_rear_hand01 0.000000 0.000000 0.000000 0.000000 0.000000 0.000000 10.000000 
L_rear_hand02 0.000000 0.000000 0.000000 0.000000 0.000000 0.000000 10.000000 
L_rear_hand03 0.000000 0.000000 0.000000 0.000000 0.000000 0.000000 10.000000 
#Beginning of Data. Separated by tabs
#Fr	Tx	Ty	Tz	Rx	Ry	Rz	SF
[MASTER]
5 0.000000 0.000000 0.000000 0.001660 0.001660 0.001660 0.000000
6 0.000000 0.000000 0.000000 0.001660 0.001660 0.001660 0.000000
[root]
5 -16.853359 -62.792934 1438.288940 -91.628624 -27.861246 -90.147491 1439.757568
6 -17.050571 -62.786453 1423.556030 -91.628349 -27.907536 -90.147331 1425.041870
[chest]
5 -84.512650 -34.090519 0.000000 -6.097914 2.648710 -178.785339 91.129311
6 -84.512650 -34.090519 0.000000 -6.393564 3.105330 -178.879318 91.129311
[L_mid_tent01]
5 27.321268 22.165043 -250.057495 5.516574 38.945503 84.687729 252.520279
6 27.310385 22.171274 -249.987732 3.862628 36.229202 81.347610 252.450562
[R_mid_tent01]
5 23.228794 24.509907 226.238495 156.846436 -49.500595 92.976463 228.744751
6 23.228794 24.509907 226.238495 160.432037 -47.061241 87.899765 228.744751
[spine01]
5 -0.361383 -0.195265 0.000000 0.784088 0.457308 14.975923 0.410763
6 -0.361383 -0.195265 0.000000 0.769848 0.459963 14.849135 0.410763
[Bip01_Neck]
5 165.484543 71.581718 0.000119 175.896118 1.177290 24.871183 180.302734
6 165.484543 71.581718 0.000119 175.896118 1.177290 24.871180 180.302734
[L_humerus]
5 -13.983130 -135.272980 -120.471481 141.621231 87.576347 -128.807236 181.680161
6 -13.983130 -135.272980 -120.471481 170.940796 81.564224 -99.189163 181.680161
[R_humerus]
5 -13.983309 -135.273102 125.287651 -154.722061 -74.684937 -106.306183 184.909012
6 -13.983309 -135.273102 125.287651 -159.666046 -68.957870 -101.166077 184.909012
[weapon_bone]
5 235.964890 -300.705902 0.000000 0.000000 -89.951546 -128.212341 382.234833
6 235.964890 -300.705902 0.000000 0.000000 -89.951546 -128.212341 382.234833
[Bip01_Head]
5 260.164917 109.861900 -14.345988 0.663105 5.826736 -64.214653 282.774170
6 259.569031 110.537407 -18.586025 0.059193 5.807379 -64.489326 282.736694
[eye_left_bone]
5 -24.626970 125.451866 -64.772606 0.000000 -90.000000 -99.840431 143.318359
6 -24.626970 125.451866 -64.772606 0.000000 -90.000000 -99.840431 143.318359
[eye_right_bone]
5 -24.626970 125.451866 64.327362 0.000000 -89.960434 80.159386 143.117676
6 -24.626970 125.451866 64.327362 0.000000 -89.972023 80.159393 143.117676
[L_forearm]
5 322.776093 0.000000 -0.000119 0.000366 0.002319 -72.043182 322.776093
6 322.776093 0.000000 -0.000119 0.000340 0.002322 -73.348732 322.776093
[L_front_hand]
5 241.149185 -0.042021 -3.300071 -179.068207 -2.070436 -15.640558 241.171753
6 241.149185 -0.042021 -3.300071 -179.236267 -2.133503 -11.175011 241.171753
[L_weapon_bone]
5 156.183838 0.000000 0.000000 0.001882 0.001403 16.608006 156.183838
6 156.183838 0.000000 0.000000 0.001960 0.001292 23.222013 156.183838
[L_front_hand01_01]
5 86.095154 20.947098 -0.655860 -0.365397 -0.478071 75.098351 88.609184
6 86.095154 20.947098 -0.655860 -0.366594 -0.477154 75.385574 88.609184
[L_front_hand02_01]
5 86.935165 -11.437475 24.513514 153.962997 -59.762066 -60.859097 91.046425
6 86.935165 -11.437475 24.513514 154.403519 -59.888931 -61.371990 91.046425
[L_front_hand03_01]
5 86.637497 -14.123976 -20.424902 -153.509613 57.991444 -62.227245 90.126129
6 86.637497 -14.123976 -20.424902 -153.913849 58.118122 -62.702866 90.126129
[L_front_hand01_02]
5 71.020905 -0.000179 0.000030 0.001534 0.001777 -8.378851 71.020905
6 71.020905 -0.000179 0.000030 0.001534 0.001777 -8.378848 71.020905
[L_front_hand02_02]
5 71.020927 -0.000119 0.000060 0.001534 0.001777 -8.378851 71.020927
6 71.020927 -0.000119 0.000060 0.001534 0.001777 -8.378848 71.020927
[L_front_hand03_02]
5 71.020905 -0.000060 0.000060 0.001534 0.001777 -8.378851 71.020905
6 71.020905 -0.000060 0.000060 0.001534 0.001777 -8.378848 71.020905
[R_forearm]
5 322.776428 -0.000060 0.000030 0.200835 -0.072535 -71.668533 322.776428
6 322.776428 -0.000060 0.000030 0.202735 -0.063164 -73.065598 322.776428
[R_front_hand]
5 238.847015 -0.006795 2.210259 -1.091674 1.335763 -28.037813 238.857239
6 238.847015 -0.006795 2.210259 -0.949452 1.441094 -22.175184 238.857239
[R_weapon_bone]
5 155.664093 0.002503 -0.000030 0.003056 0.002052 -121.356483 155.664078
6 155.664093 0.002503 -0.000030 0.002996 0.002138 -124.626381 155.664078
[R_front_hand01_01]
5 87.624611 14.231146 22.918642 -154.633499 -59.950619 61.746044 91.683487
6 87.624611 14.231146 22.918642 -154.633499 -59.950619 61.746044 91.683487
[R_front_hand02_01]
5 89.356956 14.367283 -19.491137 154.602661 58.302849 63.744389 92.579636
6 89.356956 14.367283 -19.491137 154.602661 58.302849 63.744389 92.579636
[R_front_hand03_01]
5 87.286232 -22.307278 -0.143439 0.162155 -0.423168 -75.767921 90.091743
6 87.286232 -22.307278 -0.143439 0.162155 -0.423168 -75.767921 90.091743
[R_front_hand01_02]
5 71.020905 0.000060 0.000119 0.001777 0.001534 8.377220 71.020905
6 71.020905 0.000060 0.000119 0.001777 0.001534 8.377220 71.020905
[R_front_hand02_02]
5 71.020844 -0.000030 -0.000119 0.001777 0.001534 8.377220 71.020836
6 71.020844 -0.000030 -0.000119 0.001777 0.001534 8.377220 71.020836
[R_front_hand03_02]
5 71.020905 0.000000 0.000030 0.001777 0.001534 8.377220 71.020905
6 71.020905 0.000000 0.000030 0.001777 0.001534 8.377220 71.020905
[null_rope01_connect]
5 328.732483 0.000000 -0.000238 -138.431641 -49.046310 173.649338 328.732483
6 328.732483 0.000000 -0.000238 -137.341080 -51.920109 175.266602 328.732483
[Rope1_Seg01]
5 0.000000 0.000000 0.000000 111.542786 37.092335 137.597900 0.000000
6 0.000000 0.000000 0.000000 111.430771 34.878315 137.715958 0.000000
[Rope1_Seg02]
5 139.999863 -0.000179 0.000000 0.086899 -10.365168 1.140945 139.999863
6 139.999863 -0.000179 0.000000 0.025127 -9.847959 0.937706 139.999863
[Rope1_Seg03]
5 139.999924 0.000060 -0.000060 -2.491612 -22.705582 -2.384320 139.999924
6 139.999924 0.000060 -0.000060 -2.452745 -21.836349 -2.346658 139.999924
[Rope1_Seg04]
5 139.999924 -0.000060 -0.000119 -12.951437 -30.294718 7.924427 139.999924
6 139.999924 -0.000060 -0.000119 -13.830543 -32.044918 6.260284 139.999924
[Rope1_Seg05]
5 139.999832 0.000119 -0.000060 14.079276 -3.671475 20.703100 139.999832
6 139.999832 0.000119 -0.000060 13.891018 -3.990795 21.058567 139.999832
[Rope1_Seg06]
5 139.999954 0.000119 -0.000060 4.840707 -1.229931 5.565664 139.999954
6 139.999954 0.000119 -0.000060 4.760497 -1.254464 5.535614 139.999954
[Rope1_Seg07]
5 139.999985 0.000060 0.000000 3.199835 -0.502598 2.991198 139.999985
6 139.999985 0.000060 0.000000 3.045489 -0.546572 2.936161 139.999985
[Rope1_Seg09]
5 121.602913 0.000119 -0.000089 -89.793175 -1.359789 0.847147 121.602913
6 121.602913 0.000119 -0.000089 -89.793175 -1.359789 0.847147 121.602913
[L_mid_hand01]
5 103.859421 1.038730 8.195221 111.431297 -47.263840 -16.612019 104.187431
6 103.859421 1.038730 8.195221 111.431305 -47.263851 -16.612017 104.187431
[L_mid_hand02]
5 105.572853 -4.139662 -10.864139 -150.709808 35.166882 -45.161087 106.211075
6 105.572853 -4.139662 -10.864139 -150.709808 35.166882 -45.161087 106.211075
[L_mid_hand03]
5 104.641464 17.579376 -3.913581 -12.649597 13.975001 50.985863 106.179977
6 104.641464 17.579376 -3.913581 -12.649596 13.974999 50.985855 106.179977
[null_rope02_connect]
5 328.732849 0.000179 -0.000119 -125.276924 38.242287 19.376036 328.732849
6 328.732849 0.000179 -0.000119 -123.504356 41.491394 18.223783 328.732849
[Rope2_Seg01]
5 -0.000022 0.000081 0.000101 -60.221157 49.479733 37.899422 0.000131
6 -0.000018 0.000082 0.000097 -58.096714 45.188293 38.734531 0.000128
[Rope2_Seg02]
5 139.999741 -0.000060 -0.000119 -0.152074 -12.344729 4.227514 139.999756
6 139.999741 -0.000060 -0.000119 -0.606477 -11.092819 5.439017 139.999756
[Rope2_Seg03]
5 140.000107 0.000030 0.000000 -0.475111 -10.536951 5.113175 140.000107
6 140.000107 0.000030 0.000000 -0.611847 -8.913765 7.033469 140.000107
[Rope2_Seg04]
5 139.999802 0.000000 -0.000060 -3.196281 -25.620491 6.129183 139.999802
6 139.999802 0.000000 -0.000060 -2.971183 -24.975990 6.885405 139.999802
[Rope2_Seg05]
5 139.999985 -0.000060 0.000119 -3.540586 -13.557331 1.678358 139.999985
6 139.999985 -0.000060 0.000119 -3.823700 -14.109360 1.467296 139.999985
[Rope2_Seg06]
5 139.999893 -0.000030 -0.000119 -1.822284 -5.111742 0.489017 139.999893
6 139.999893 -0.000030 -0.000119 -1.833021 -5.175897 0.500437 139.999893
[Rope2_Seg07]
5 139.999893 0.000060 -0.000060 -1.289530 -2.954260 0.188292 139.999893
6 139.999893 0.000060 -0.000060 -1.299626 -2.983873 0.193837 139.999893
[Rope2_Seg09]
5 121.338966 0.000089 -0.000060 33.793236 -1.359788 -0.847141 121.338966
6 121.338966 0.000089 -0.000060 33.793236 -1.359788 -0.847141 121.338966
[R_mid_hand01]
5 104.680779 11.144459 -10.335981 -34.269653 35.095993 42.885235 105.778534
6 104.680779 11.144459 -10.335981 -34.269650 35.095989 42.885235 105.778534
[R_mid_hand02]
5 104.070427 2.443552 8.231699 68.449066 -47.537163 16.779839 104.424065
6 104.070427 2.443552 8.231699 68.449066 -47.537163 16.779839 104.424065
[R_mid_hand03]
5 106.028137 -11.221827 -5.996406 -171.106766 13.128626 -52.726494 106.788818
6 106.028137 -11.221827 -5.996406 -171.106766 13.128626 -52.726494 106.788818
[spine02]
5 129.756927 0.001550 0.000119 -0.245795 -4.184414 -4.431369 129.756927
6 129.756927 0.001550 0.000119 -0.245211 -4.210922 -4.464389 129.756927
[spine03]
5 78.634071 0.083694 -4.700325 0.594035 3.985211 -2.892794 78.774467
6 78.639153 0.082798 -4.650708 0.662716 3.868980 -2.262358 78.776596
[pelvis]
5 169.435242 0.051022 0.000000 -0.005131 0.011466 -1.968470 169.435257
6 169.435242 0.051022 0.000000 -0.002964 0.075807 -2.004745 169.435257
[null_rope03_connect]
5 -1.257226 -2.466202 137.391083 -98.682632 -89.194000 -149.140076 137.418976
6 -1.257226 -2.466202 137.391083 -100.265862 -89.264580 -147.928436 137.418976
[null_rope04_connect]
5 -1.259640 -2.480268 -137.844437 -98.682632 -89.194000 -149.140076 137.872513
6 -1.259640 -2.480268 -137.844437 -100.265862 -89.264580 -147.928436 137.872513
[Rope3_Seg01]
5 0.000000 0.000000 0.000000 -136.788589 -33.151440 -70.619621 0.000000
6 0.000000 0.000000 0.000000 -135.508286 -32.330299 -72.770386 0.000000
[Rope3_Seg02]
5 139.999924 -0.000119 0.000060 -5.705730 3.412616 -18.271290 139.999924
6 139.999924 -0.000119 0.000060 -4.319435 3.094796 -16.104174 139.999924
[Rope3_Seg03]
5 139.999924 -0.000119 0.000119 -63.798763 17.380968 -64.119904 139.999924
6 139.999924 -0.000119 0.000119 -57.070816 15.730723 -62.240051 139.999924
[Rope3_Seg04]
5 139.999924 0.000119 0.000000 -30.915417 34.793049 -16.687944 139.999924
6 139.999924 0.000119 0.000000 -36.487221 35.102356 -21.457428 139.999924
[Rope3_Seg05]
5 139.999924 -0.000238 0.000060 -10.188869 27.299297 -4.879862 139.999924
6 139.999924 -0.000238 0.000060 -11.514178 27.802694 -5.381017 139.999924
[Rope3_Seg06]
5 139.999893 -0.000119 -0.000060 -1.346311 12.367629 0.139363 139.999893
6 139.999893 -0.000119 -0.000060 -1.893286 14.300310 0.073227 139.999893
[Rope3_Seg07]
5 139.999771 0.000060 -0.000119 0.168694 5.552365 0.381206 139.999771
6 139.999771 0.000060 -0.000119 0.100205 6.067556 0.457661 139.999771
[Rope3_Seg08]
5 139.999985 -0.000060 0.000000 0.457018 2.998333 0.196673 139.999985
6 139.999985 -0.000060 0.000000 0.443734 3.230734 0.236819 139.999985
[Rope3_Seg09]
5 90.185997 -0.000179 -0.000060 89.793228 -1.359877 -0.847183 90.185997
6 90.185997 -0.000179 -0.000060 89.793228 -1.359877 -0.847183 90.185997
[R_rear_hand01]
5 103.366196 -6.073594 -10.757982 -166.970291 21.129854 -46.704182 104.101845
6 103.366196 -6.073594 -10.757982 -166.970291 21.129850 -46.704182 104.101845
[R_rear_hand02]
5 100.509819 12.039542 -7.992327 -28.148870 27.804201 44.102722 101.543350
6 100.509819 12.039542 -7.992327 -28.148869 27.804199 44.102722 101.543350
[R_rear_hand03]
5 101.539970 5.215704 5.435467 81.628380 -47.127724 10.016966 101.819031
6 101.539970 5.215704 5.435467 81.628380 -47.127724 10.016966 101.819031
[Rope4_Seg01]
5 0.000010 0.000038 -0.000114 45.938320 -16.374619 -97.422737 0.000121
6 0.000010 0.000038 -0.000114 45.933006 -16.236040 -97.403290 0.000121
[Rope4_Seg02]
5 139.999985 0.000060 0.000119 2.841118 -30.077728 4.941984 139.999985
6 139.999985 0.000060 0.000119 1.906125 -25.108393 4.357231 139.999985
[Rope4_Seg03]
5 139.999924 0.000000 -0.000238 41.220028 -65.815636 33.585266 139.999924
6 139.999924 0.000000 -0.000238 35.868317 -66.468445 32.780914 139.999924
[Rope4_Seg04]
5 139.999985 0.000000 0.000119 20.758532 -5.218439 20.587355 139.999985
6 139.999985 0.000000 0.000119 23.702456 -7.836885 22.292137 139.999985
[Rope4_Seg05]
5 139.999802 -0.000060 -0.000119 15.753580 1.360943 27.382483 139.999802
6 139.999802 -0.000060 -0.000119 15.904140 0.235473 25.901443 139.999802
[Rope4_Seg06]
5 139.999924 0.000000 0.000060 6.891478 7.532494 23.937061 139.999924
6 139.999924 0.000000 0.000060 8.337009 7.203162 26.506399 139.999924
[Rope4_Seg07]
5 139.999802 0.000000 0.000000 0.831254 3.897116 8.757950 139.999802
6 139.999802 0.000000 0.000000 1.018003 4.081611 9.546019 139.999802
[Rope4_Seg08]
5 139.999924 0.000000 0.000119 -1.469333 2.028597 4.428947 139.999924
6 139.999924 0.000000 0.000119 -1.441280 2.100892 4.735529 139.999924
[Rope4_Seg09]
5 90.185791 0.000060 0.000060 -135.617828 2.228885 0.850567 90.185791
6 90.185791 0.000060 0.000060 -135.617828 2.228885 0.850567 90.185791
[L_rear_hand01]
5 101.696655 -8.392275 -7.654577 -27.705481 -28.251705 134.947800 102.329041
6 101.696655 -8.392275 -7.654577 -27.705481 -28.251705 134.947800 102.329041
[L_rear_hand02]
5 102.726799 -1.568258 5.773216 81.477219 48.065086 169.775513 102.900848
6 102.726799 -1.568258 5.773216 81.477219 48.065086 169.775513 102.900848
[L_rear_hand03]
5 104.552910 9.721220 -10.420293 -167.330078 -21.338425 -132.303940 105.519653
6 104.552910 9.721220 -10.420293 -167.330078 -21.338425 -132.303940 105.519653
